# File created by Blade
# Date/Time:  Fri Jan 16 19:00:24 2015
# Frame Rate: 120.000 fps
#------------------------------------------------------
:FULLY-SPECIFIED
:DEGREES
2339
root 18.003601 36.380797 -20.362104 -184.946847 2.254950 -168.760244
Spine 14.070243 4.199159 8.802618
Head 1.335143 -1.312777 6.380403
LeftShoulder -10.205391 -28.535492 12.895717
LeftArm 0.144255 -7.259213 -17.236133
LeftForeArm -3.494913 0.000000 3.967660
LeftHand -3.491369 -0.000000 1.582993
LeftHandThumb1 -26.253704 0.000000 33.147579
RightShoulder -10.289890 -4.865848 0.164309
RightArm 0.871486 51.174878 31.694888
RightForeArm -33.235690 -0.000000 32.825158
RightHand -16.563937 -0.000000 -5.779431
RightHandThumb1 -24.326973 -0.000000 -32.862282
LeftUpLeg 4.975690 9.437993 2.943623
LeftLeg 0.041412 -0.000000 -0.000000
LeftFoot -17.961497 26.032640 -8.742860
LeftToeBase 20.128532 -0.000000 -0.000000
RightUpLeg -83.937571 0.039249 12.274731
RightLeg 113.989873 -0.000000 -0.000000
RightFoot 31.121421 -36.476082 -18.222045
RightToeBase 21.188767 -0.000000 -0.000000
2340
root 18.044111 36.379670 -20.357828 -185.106798 2.421321 -168.820538
Spine 14.203184 4.304832 8.613065
Head 1.401409 -1.313991 6.472751
LeftShoulder -10.168225 -28.491084 12.914454
LeftArm 0.233461 -7.346318 -17.221147
LeftForeArm -3.499261 -0.000000 3.938549
LeftHand -3.485798 -0.000000 1.502569
LeftHandThumb1 -26.253704 0.000000 33.147579
RightShoulder -10.257720 -4.841477 0.251212
RightArm 0.960380 51.089074 31.804329
RightForeArm -33.282776 -0.000000 32.984410
RightHand -16.606675 -0.000000 -5.665196
RightHandThumb1 -24.326973 -0.000000 -32.862282
LeftUpLeg 5.152957 9.528267 2.985803
LeftLeg 0.049902 -0.000000 -0.000000
LeftFoot -17.997144 26.086580 -8.816628
LeftToeBase 20.093421 -0.000000 -0.000000
RightUpLeg -84.079033 0.876291 12.666633
RightLeg 114.068759 -0.000000 -0.000000
RightFoot 31.252955 -36.385889 -18.161810
RightToeBase 20.558907 -0.000000 -0.000000
2341
root 18.078773 36.378529 -20.352677 -185.244176 2.543556 -168.897881
Spine 14.305025 4.364532 8.423758
Head 1.472460 -1.248379 6.543863
LeftShoulder -10.148792 -28.545168 12.906296
LeftArm 0.339913 -7.305795 -17.178806
LeftForeArm -3.568752 -0.000000 3.839243
LeftHand -3.461301 -0.000000 1.458653
LeftHandThumb1 -26.253704 0.000000 33.147579
RightShoulder -10.310246 -4.877454 0.299467
RightArm 1.304928 51.137903 32.175264
RightForeArm -33.423051 -0.000000 33.122657
RightHand -16.568357 0.000000 -5.442060
RightHandThumb1 -24.326973 -0.000000 -32.862282
LeftUpLeg 5.286492 9.614696 2.997522
LeftLeg 0.086717 -0.000000 -0.000000
LeftFoot -18.017201 26.109688 -8.843405
LeftToeBase 20.122062 -0.000000 -0.000000
RightUpLeg -84.235122 1.639289 13.030401
RightLeg 114.145268 -0.000000 -0.000000
RightFoot 31.412211 -36.243789 -18.287813
RightToeBase 20.381406 -0.000000 -0.000000
2342
root 18.110298 36.377075 -20.347390 -185.376959 2.640968 -168.985508
Spine 14.390714 4.371530 8.208519
Head 1.542059 -1.206260 6.640933
LeftShoulder -10.143508 -28.539495 12.949856
LeftArm 0.370281 -7.367013 -17.181715
LeftForeArm -3.553333 0.000000 3.845172
LeftHand -3.495600 -0.000000 1.396835
LeftHandThumb1 -26.253704 0.000000 33.147579
RightShoulder -10.186401 -4.820397 0.348844
RightArm 1.228826 51.130683 32.182722
RightForeArm -33.538242 -0.000000 33.273135
RightHand -16.444613 -0.000000 -5.250345
RightHandThumb1 -24.326973 -0.000000 -32.862282
LeftUpLeg 5.412604 9.710943 2.991987
LeftLeg 0.114287 -0.000000 -0.000000
LeftFoot -18.033570 26.101552 -8.896178
LeftToeBase 20.156347 -0.000000 -0.000000
RightUpLeg -84.379233 2.365437 13.377227
RightLeg 114.228191 -0.000000 -0.000000
RightFoot 31.366798 -36.182306 -18.253073
RightToeBase 20.483257 -0.000000 -0.000000
2343
root 18.138801 36.372967 -20.341331 -185.450265 2.734525 -169.104362
Spine 14.397931 4.413944 7.962658
Head 1.612314 -1.208764 6.718375
LeftShoulder -10.131905 -28.596500 12.992224
LeftArm 0.405682 -7.350143 -17.185029
LeftForeArm -3.554814 -0.000000 3.821722
LeftHand -3.494295 -0.000000 1.402627
LeftHandThumb1 -26.253704 0.000000 33.147579
RightShoulder -10.168336 -4.768921 0.423198
RightArm 1.270017 51.011516 32.242744
RightForeArm -33.661278 -0.000000 33.395416
RightHand -16.445156 0.000000 -5.353390
RightHandThumb1 -24.326973 -0.000000 -32.862282
LeftUpLeg 5.495695 9.737850 2.936035
LeftLeg 0.103384 -0.000000 -0.000000
LeftFoot -18.034289 26.138502 -8.958435
LeftToeBase 20.136207 -0.000000 -0.000000
RightUpLeg -84.575643 3.110915 13.684110
RightLeg 114.319587 -0.000000 -0.000000
RightFoot 31.308434 -36.153658 -18.296036
RightToeBase 20.895025 -0.000000 -0.000000
2344
root 18.171915 36.371338 -20.334571 -185.534339 2.791318 -169.186669
Spine 14.422935 4.438720 7.758915
Head 1.659729 -1.214462 6.774621
LeftShoulder -10.036309 -28.708142 12.975740
LeftArm 0.367102 -7.267365 -17.102288
LeftForeArm -3.660021 -0.000000 3.804444
LeftHand -3.454504 -0.000000 1.239877
LeftHandThumb1 -26.253704 0.000000 33.147579
RightShoulder -10.162799 -4.720336 0.491730
RightArm 1.289538 50.897224 32.304336
RightForeArm -33.723086 -0.000000 33.534986
RightHand -16.453527 -0.000000 -5.323059
RightHandThumb1 -24.326973 -0.000000 -32.862282
LeftUpLeg 5.558548 9.800857 2.926771
LeftLeg 0.139079 -0.000000 -0.000000
LeftFoot -18.056691 26.110071 -9.040159
LeftToeBase 20.095886 -0.000000 -0.000000
RightUpLeg -84.735184 3.808844 14.044945
RightLeg 114.407569 -0.000000 -0.000000
RightFoot 31.269047 -36.126763 -18.387574
RightToeBase 20.745828 -0.000000 -0.000000
2345
root 18.202510 36.370407 -20.326957 -185.614478 2.845298 -169.244935
Spine 14.445769 4.422686 7.590130
Head 1.727725 -1.153009 6.836927
LeftShoulder -10.027435 -28.604700 12.993587
LeftArm 0.428264 -7.413330 -17.140255
LeftForeArm -3.671174 -0.000000 3.785535
LeftHand -3.441960 -0.000000 1.244306
LeftHandThumb1 -26.253704 0.000000 33.147579
RightShoulder -10.088884 -4.727917 0.547945
RightArm 1.297745 50.859957 32.351443
RightForeArm -33.774750 -0.000000 33.664047
RightHand -16.458153 -0.000000 -5.270962
RightHandThumb1 -24.326973 -0.000000 -32.862282
LeftUpLeg 5.624002 9.803282 2.930857
LeftLeg 0.166218 -0.000000 -0.000000
LeftFoot -18.037068 26.151076 -9.002063
LeftToeBase 20.114855 -0.000000 -0.000000
RightUpLeg -84.876976 4.479777 14.438438
RightLeg 114.472777 -0.000000 -0.000000
RightFoot 31.265249 -36.211750 -18.456336
RightToeBase 20.918998 -0.000000 -0.000000
2346
root 18.235921 36.368648 -20.318026 -185.675043 2.895227 -169.297315
Spine 14.458482 4.371303 7.423885
Head 1.765297 -1.064802 6.870541
LeftShoulder -10.033684 -28.756372 13.018735
LeftArm 0.381811 -7.251409 -17.091382
LeftForeArm -3.778145 -0.000000 3.784592
LeftHand -3.468478 -0.000000 1.193903
LeftHandThumb1 -26.253704 0.000000 33.147579
RightShoulder -10.047081 -4.677373 0.575955
RightArm 1.389488 50.783850 32.500538
RightForeArm -33.874478 -0.000000 33.808207
RightHand -16.573931 -0.000000 -5.274450
RightHandThumb1 -24.326973 -0.000000 -32.862282
LeftUpLeg 5.643906 9.812110 2.939180
LeftLeg 0.234754 -0.000000 -0.000000
LeftFoot -18.057290 26.174390 -8.991020
LeftToeBase 20.063462 -0.000000 -0.000000
RightUpLeg -85.015308 5.161859 14.827310
RightLeg 114.569985 -0.000000 -0.000000
RightFoot 31.148374 -36.245959 -18.391431
RightToeBase 20.868753 -0.000000 -0.000000
2347
root 18.267399 36.366002 -20.309585 -185.715420 2.919482 -169.338596
Spine 14.435716 4.340936 7.284704
Head 1.809697 -1.052785 6.890340
LeftShoulder -9.998484 -28.796019 13.012623
LeftArm 0.382603 -7.249729 -17.077952
LeftForeArm -3.748570 -0.000000 3.768271
LeftHand -3.493962 -0.000000 1.198139
LeftHandThumb1 -26.253704 0.000000 33.147579
RightShoulder -10.004886 -4.621324 0.603615
RightArm 1.314099 50.619403 32.519134
RightForeArm -33.736498 -0.000000 34.010388
RightHand -16.504006 -0.000000 -5.183562
RightHandThumb1 -24.326973 -0.000000 -32.862282
LeftUpLeg 5.642617 9.721858 2.928930
LeftLeg 0.284771 -0.000000 -0.000000
LeftFoot -18.098169 26.335550 -8.966822
LeftToeBase 20.075041 -0.000000 -0.000000
RightUpLeg -85.167505 5.828106 15.170964
RightLeg 114.708484 -0.000000 -0.000000
RightFoot 30.678409 -36.191575 -17.981658
RightToeBase 21.153275 -0.000000 -0.000000
2348
root 18.297233 36.362329 -20.301905 -185.759975 2.937180 -169.374523
Spine 14.416552 4.308659 7.162572
Head 1.821729 -1.047374 6.905699
LeftShoulder -9.934741 -28.817290 13.005008
LeftArm 0.346102 -7.291390 -17.073759
LeftForeArm -3.825471 -0.000000 3.749044
LeftHand -3.433804 -0.000000 1.167681
LeftHandThumb1 -26.253704 0.000000 33.147579
RightShoulder -9.982929 -4.612113 0.653372
RightArm 1.345492 50.500900 32.558412
RightForeArm -33.640900 -0.000000 34.088250
RightHand -16.533632 -0.000000 -5.401792
RightHandThumb1 -24.326973 -0.000000 -32.862282
LeftUpLeg 5.632584 9.589694 2.920544
LeftLeg 0.371948 -0.000000 -0.000000
LeftFoot -18.150740 26.483087 -8.909881
LeftToeBase 20.085442 -0.000000 -0.000000
RightUpLeg -85.284052 6.464497 15.536930
RightLeg 114.827251 -0.000000 -0.000000
RightFoot 30.647346 -36.032164 -17.965599
RightToeBase 20.799061 -0.000000 -0.000000
2349
root 18.323553 36.358494 -20.292641 -185.788162 2.973790 -169.409435
Spine 14.397888 4.257258 7.046931
Head 1.821958 -0.990816 6.901489
LeftShoulder -9.941203 -28.885787 13.016180
LeftArm 0.310232 -7.225757 -17.060068
LeftForeArm -3.866354 -0.000000 3.731086
LeftHand -3.465335 -0.000000 1.152576
LeftHandThumb1 -26.253704 0.000000 33.147579
RightShoulder -9.976649 -4.571361 0.721024
RightArm 1.487771 50.512925 32.642768
RightForeArm -33.873568 -0.000000 34.146334
RightHand -16.574449 -0.000000 -5.370872
RightHandThumb1 -24.326973 -0.000000 -32.862282
LeftUpLeg 5.610627 9.386273 2.894819
LeftLeg 0.449459 -0.000000 -0.000000
LeftFoot -18.215963 26.720426 -8.877448
LeftToeBase 20.001319 -0.000000 -0.000000
RightUpLeg -85.400485 7.118158 15.925795
RightLeg 114.928532 -0.000000 -0.000000
RightFoot 30.736666 -35.954924 -18.140719
RightToeBase 20.858768 -0.000000 -0.000000
2350
root 18.353274 36.355427 -20.285888 -185.849098 3.043569 -169.418925
Spine 14.419116 4.245548 6.972061
Head 1.813389 -0.962629 6.908174
LeftShoulder -9.907772 -28.941259 13.004729
LeftArm 0.254483 -7.179885 -17.036492
LeftForeArm -3.909077 -0.000000 3.726723
LeftHand -3.497995 -0.000000 1.190683
LeftHandThumb1 -26.253704 0.000000 33.147579
RightShoulder -9.937840 -4.505820 0.788432
RightArm 1.534447 50.498648 32.643716
RightForeArm -33.970097 -0.000000 34.191205
RightHand -16.652064 -0.000000 -5.590042
RightHandThumb1 -24.326973 -0.000000 -32.862282
LeftUpLeg 5.633371 9.198750 2.907388
LeftLeg 0.526525 -0.000000 -0.000000
LeftFoot -18.289072 26.961600 -8.840251
LeftToeBase 19.963399 -0.000000 -0.000000
RightUpLeg -85.443300 7.799249 16.311830
RightLeg 115.058334 -0.000000 -0.000000
RightFoot 30.624001 -35.905289 -18.010362
RightToeBase 20.879044 -0.000000 -0.000000
